<mxfile host="app.diagrams.net" modified="2021-07-31T02:29:01.569Z" agent="5.0 (Windows NT 10.0; Win64; x64) AppleWebKit/537.36 (KHTML, like Gecko) Chrome/92.0.4515.107 Safari/537.36" etag="vIkBt18MWTusayMG9Aba" version="14.9.2" type="github">
  <diagram name="Page-1" id="f1b7ffb7-ca1e-a977-7cf5-a751b3c06c05">
    <mxGraphModel dx="813" dy="435" grid="1" gridSize="10" guides="1" tooltips="1" connect="1" arrows="1" fold="1" page="1" pageScale="1" pageWidth="826" pageHeight="1169" background="#ffffff" math="0" shadow="0">
      <root>
        <mxCell id="0" />
        <mxCell id="1" parent="0" />
        <mxCell id="L9B3aDiCXGXk3aUIXpAX-61" value="" style="swimlane;" vertex="1" parent="1">
          <mxGeometry x="240" y="200" width="310" height="260" as="geometry" />
        </mxCell>
        <mxCell id="L9B3aDiCXGXk3aUIXpAX-63" value="" style="shape=image;html=1;verticalAlign=top;verticalLabelPosition=bottom;labelBackgroundColor=#ffffff;imageAspect=0;aspect=fixed;image=https://cdn4.iconfinder.com/data/icons/evil-icons-user-interface/64/close2-128.png" vertex="1" parent="1">
          <mxGeometry x="530" y="200" width="18" height="18" as="geometry" />
        </mxCell>
        <mxCell id="L9B3aDiCXGXk3aUIXpAX-65" value="" style="rounded=0;whiteSpace=wrap;html=1;" vertex="1" parent="1">
          <mxGeometry x="514" y="204" width="10" height="10" as="geometry" />
        </mxCell>
      </root>
    </mxGraphModel>
  </diagram>
</mxfile>
